# xmcd
#
# Track frame offsets:
#	150
#	17505
#	30725
#	44617
#	66230
#	80597
#	103535
#	116442
#	133767
#	147752
#	160915
#	171490
#	187102
#	206337
#
# Disc length: 2935 seconds
#
# Revision: 7
# Processed by: cddbd v1.5.2PL0 Copyright (c) Steve Scherf et al.
# Submitted via: audiograbber 1.83.01
#
DISCID=c50b750e
DTITLE=Dwight Yoakam - Tomorrow's Sounds Today 
DYEAR=2000
DGENRE=Country
TTITLE0=Love Caught Up To Me
TTITLE1=What Do You Know About Love
TTITLE2=Time Spent Missing You
TTITLE3=Free To Go
TTITLE4=A Promise You Can´T Keep
TTITLE5=A Place To Cry
TTITLE6=The Sad Side Of Town
TTITLE7=Dreams Of Clay
TTITLE8=For Love's Sake
TTITLE9=The Heartaches Are Free
TTITLE10=A World Of Blue
TTITLE11=I Want You To Want Me
TTITLE12=Alright  I'm Wrong
TTITLE13=I Was There
EXTD=YEAR: 2000
EXTT0=
EXTT1=
EXTT2=
EXTT3=
EXTT4=
EXTT5=
EXTT6=
EXTT7=
EXTT8=
EXTT9=
EXTT10=
EXTT11=
EXTT12=
EXTT13=
PLAYORDER=
